<mxfile host="app.diagrams.net" modified="2023-07-22T16:06:30.281Z" agent="Mozilla/5.0 (Windows NT 10.0; Win64; x64) AppleWebKit/537.36 (KHTML, like Gecko) Chrome/114.0.0.0 Safari/537.36" etag="wqd5-84XoBLNTC4vqTZI" version="21.2.6" type="github">
  <diagram name="第 1 页" id="9kZCvtp01yo8YnCBJ-Vh">
    <mxGraphModel dx="1050" dy="573" grid="1" gridSize="10" guides="1" tooltips="1" connect="1" arrows="1" fold="1" page="1" pageScale="1" pageWidth="827" pageHeight="1169" math="0" shadow="0">
      <root>
        <mxCell id="0" />
        <mxCell id="1" parent="0" />
        <mxCell id="oXok-w3Ur9wGTffbCpxJ-68" style="edgeStyle=orthogonalEdgeStyle;orthogonalLoop=1;jettySize=auto;html=1;exitX=1;exitY=0.5;exitDx=0;exitDy=0;entryX=0.5;entryY=0;entryDx=0;entryDy=0;rounded=1;dashed=1;dashPattern=8 8;strokeWidth=2;strokeColor=#787878;" edge="1" parent="1" source="oXok-w3Ur9wGTffbCpxJ-1" target="oXok-w3Ur9wGTffbCpxJ-33">
          <mxGeometry relative="1" as="geometry" />
        </mxCell>
        <mxCell id="oXok-w3Ur9wGTffbCpxJ-1" value="" style="rounded=1;whiteSpace=wrap;html=1;strokeColor=#11d3bc;strokeWidth=2;" vertex="1" parent="1">
          <mxGeometry x="270" y="60" width="190" height="60" as="geometry" />
        </mxCell>
        <mxCell id="oXok-w3Ur9wGTffbCpxJ-2" value="" style="image;aspect=fixed;perimeter=ellipsePerimeter;html=1;align=center;shadow=0;dashed=0;fontColor=#4277BB;labelBackgroundColor=default;fontSize=12;spacingTop=3;image=img/lib/ibm/infrastructure/peer_services.svg;" vertex="1" parent="1">
          <mxGeometry x="280" y="70" width="40" height="40" as="geometry" />
        </mxCell>
        <mxCell id="oXok-w3Ur9wGTffbCpxJ-3" value="&lt;font style=&quot;font-size: 16px;&quot;&gt;开始&lt;br style=&quot;border-color: var(--border-color);&quot;&gt;（小程序入口）&lt;/font&gt;" style="rounded=0;whiteSpace=wrap;html=1;strokeColor=none;" vertex="1" parent="1">
          <mxGeometry x="330" y="70" width="120" height="40" as="geometry" />
        </mxCell>
        <mxCell id="oXok-w3Ur9wGTffbCpxJ-4" value="" style="rounded=1;whiteSpace=wrap;html=1;strokeWidth=2;strokeColor=#6eb6ff;fillStyle=hatch;fillColor=#6EB6FF02;gradientColor=#6EB6FF66;" vertex="1" parent="1">
          <mxGeometry x="160" y="210" width="120" height="170" as="geometry" />
        </mxCell>
        <mxCell id="oXok-w3Ur9wGTffbCpxJ-5" value="&lt;font style=&quot;font-size: 14px;&quot;&gt;1.商城首页&lt;/font&gt;" style="rounded=0;whiteSpace=wrap;html=1;strokeColor=none;fillColor=none;" vertex="1" parent="1">
          <mxGeometry x="170" y="217" width="100" height="30" as="geometry" />
        </mxCell>
        <mxCell id="oXok-w3Ur9wGTffbCpxJ-6" value="洗护服务浏览" style="rounded=0;whiteSpace=wrap;html=1;strokeColor=none;" vertex="1" parent="1">
          <mxGeometry x="170" y="250" width="100" height="30" as="geometry" />
        </mxCell>
        <mxCell id="oXok-w3Ur9wGTffbCpxJ-8" value="洗护服务搜索" style="rounded=0;whiteSpace=wrap;html=1;strokeColor=none;" vertex="1" parent="1">
          <mxGeometry x="170" y="290" width="100" height="30" as="geometry" />
        </mxCell>
        <mxCell id="oXok-w3Ur9wGTffbCpxJ-9" value="客户案例等" style="rounded=0;whiteSpace=wrap;html=1;strokeColor=none;" vertex="1" parent="1">
          <mxGeometry x="170" y="330" width="100" height="30" as="geometry" />
        </mxCell>
        <mxCell id="oXok-w3Ur9wGTffbCpxJ-10" value="" style="endArrow=classic;html=1;exitX=0.5;exitY=1;exitDx=0;exitDy=0;entryX=0.5;entryY=0;entryDx=0;entryDy=0;edgeStyle=orthogonalEdgeStyle;strokeWidth=2;strokeColor=#696969;" edge="1" parent="1" source="oXok-w3Ur9wGTffbCpxJ-1" target="oXok-w3Ur9wGTffbCpxJ-4">
          <mxGeometry width="50" height="50" relative="1" as="geometry">
            <mxPoint x="390" y="310" as="sourcePoint" />
            <mxPoint x="440" y="260" as="targetPoint" />
          </mxGeometry>
        </mxCell>
        <mxCell id="oXok-w3Ur9wGTffbCpxJ-12" value="" style="rounded=1;whiteSpace=wrap;html=1;strokeWidth=2;strokeColor=#6eb6ff;fillStyle=hatch;fillColor=#6EB6FF02;gradientColor=#6EB6FF66;" vertex="1" parent="1">
          <mxGeometry x="450" y="210" width="120" height="170" as="geometry" />
        </mxCell>
        <mxCell id="oXok-w3Ur9wGTffbCpxJ-13" value="&lt;font style=&quot;font-size: 14px;&quot;&gt;2.洗护下单&lt;/font&gt;" style="rounded=0;whiteSpace=wrap;html=1;strokeColor=none;fillColor=none;" vertex="1" parent="1">
          <mxGeometry x="460" y="217" width="100" height="30" as="geometry" />
        </mxCell>
        <mxCell id="oXok-w3Ur9wGTffbCpxJ-14" value="地址填写" style="rounded=0;whiteSpace=wrap;html=1;strokeColor=none;" vertex="1" parent="1">
          <mxGeometry x="460" y="250" width="100" height="30" as="geometry" />
        </mxCell>
        <mxCell id="oXok-w3Ur9wGTffbCpxJ-15" value="取货时间" style="rounded=0;whiteSpace=wrap;html=1;strokeColor=none;" vertex="1" parent="1">
          <mxGeometry x="460" y="290" width="100" height="30" as="geometry" />
        </mxCell>
        <mxCell id="oXok-w3Ur9wGTffbCpxJ-16" value="联系方式" style="rounded=0;whiteSpace=wrap;html=1;strokeColor=none;" vertex="1" parent="1">
          <mxGeometry x="460" y="330" width="100" height="30" as="geometry" />
        </mxCell>
        <mxCell id="oXok-w3Ur9wGTffbCpxJ-17" value="" style="rounded=1;whiteSpace=wrap;html=1;strokeWidth=2;strokeColor=#ffc93c;fillStyle=hatch;fillColor=#ffc93c02;gradientColor=#ffc93c66;" vertex="1" parent="1">
          <mxGeometry x="160" y="430" width="120" height="170" as="geometry" />
        </mxCell>
        <mxCell id="oXok-w3Ur9wGTffbCpxJ-18" value="&lt;font style=&quot;font-size: 14px;&quot;&gt;3.骑手接单&lt;/font&gt;" style="rounded=0;whiteSpace=wrap;html=1;strokeColor=none;fillColor=none;" vertex="1" parent="1">
          <mxGeometry x="170" y="437" width="100" height="30" as="geometry" />
        </mxCell>
        <mxCell id="oXok-w3Ur9wGTffbCpxJ-19" value="消息推送" style="rounded=0;whiteSpace=wrap;html=1;strokeColor=none;" vertex="1" parent="1">
          <mxGeometry x="170" y="470" width="100" height="30" as="geometry" />
        </mxCell>
        <mxCell id="oXok-w3Ur9wGTffbCpxJ-20" value="骑手接单" style="rounded=0;whiteSpace=wrap;html=1;strokeColor=none;" vertex="1" parent="1">
          <mxGeometry x="170" y="510" width="100" height="30" as="geometry" />
        </mxCell>
        <mxCell id="oXok-w3Ur9wGTffbCpxJ-21" value="电话回访等" style="rounded=0;whiteSpace=wrap;html=1;strokeColor=none;" vertex="1" parent="1">
          <mxGeometry x="170" y="550" width="100" height="30" as="geometry" />
        </mxCell>
        <mxCell id="oXok-w3Ur9wGTffbCpxJ-67" style="edgeStyle=orthogonalEdgeStyle;rounded=0;orthogonalLoop=1;jettySize=auto;html=1;entryX=0;entryY=0.5;entryDx=0;entryDy=0;strokeWidth=2;dashed=1;dashPattern=8 8;strokeColor=#757575;" edge="1" parent="1" source="oXok-w3Ur9wGTffbCpxJ-23" target="oXok-w3Ur9wGTffbCpxJ-33">
          <mxGeometry relative="1" as="geometry" />
        </mxCell>
        <mxCell id="oXok-w3Ur9wGTffbCpxJ-23" value="" style="rounded=1;whiteSpace=wrap;html=1;strokeWidth=2;strokeColor=#ffc93c;fillStyle=hatch;fillColor=#ffc93c02;gradientColor=#ffc93c66;" vertex="1" parent="1">
          <mxGeometry x="450" y="430" width="120" height="170" as="geometry" />
        </mxCell>
        <mxCell id="oXok-w3Ur9wGTffbCpxJ-24" value="&lt;font style=&quot;font-size: 14px;&quot;&gt;4.上门取件&lt;/font&gt;" style="rounded=0;whiteSpace=wrap;html=1;strokeColor=none;fillColor=none;" vertex="1" parent="1">
          <mxGeometry x="460" y="437" width="100" height="30" as="geometry" />
        </mxCell>
        <mxCell id="oXok-w3Ur9wGTffbCpxJ-25" value="图片上传" style="rounded=0;whiteSpace=wrap;html=1;strokeColor=none;" vertex="1" parent="1">
          <mxGeometry x="460" y="470" width="100" height="30" as="geometry" />
        </mxCell>
        <mxCell id="oXok-w3Ur9wGTffbCpxJ-26" value="接单验证" style="rounded=0;whiteSpace=wrap;html=1;strokeColor=none;" vertex="1" parent="1">
          <mxGeometry x="460" y="510" width="100" height="30" as="geometry" />
        </mxCell>
        <mxCell id="oXok-w3Ur9wGTffbCpxJ-28" value="" style="rounded=1;whiteSpace=wrap;html=1;strokeWidth=2;strokeColor=#a4e5d9;fillStyle=hatch;fillColor=#a4e5d902;gradientColor=#a4e5d966;" vertex="1" parent="1">
          <mxGeometry x="160" y="650" width="120" height="170" as="geometry" />
        </mxCell>
        <mxCell id="oXok-w3Ur9wGTffbCpxJ-29" value="&lt;font style=&quot;font-size: 14px;&quot;&gt;5.工厂洗护&lt;/font&gt;" style="rounded=0;whiteSpace=wrap;html=1;strokeColor=none;fillColor=none;" vertex="1" parent="1">
          <mxGeometry x="170" y="657" width="100" height="30" as="geometry" />
        </mxCell>
        <mxCell id="oXok-w3Ur9wGTffbCpxJ-69" style="edgeStyle=orthogonalEdgeStyle;rounded=1;orthogonalLoop=1;jettySize=auto;html=1;exitX=1;exitY=0;exitDx=0;exitDy=0;dashed=1;dashPattern=8 8;strokeWidth=2;strokeColor=#8A8A8A;" edge="1" parent="1" source="oXok-w3Ur9wGTffbCpxJ-29" target="oXok-w3Ur9wGTffbCpxJ-33">
          <mxGeometry relative="1" as="geometry">
            <Array as="points">
              <mxPoint x="270" y="640" />
              <mxPoint x="735" y="640" />
            </Array>
          </mxGeometry>
        </mxCell>
        <mxCell id="oXok-w3Ur9wGTffbCpxJ-30" value="洗护图片上传" style="rounded=0;whiteSpace=wrap;html=1;strokeColor=none;" vertex="1" parent="1">
          <mxGeometry x="170" y="690" width="100" height="30" as="geometry" />
        </mxCell>
        <mxCell id="oXok-w3Ur9wGTffbCpxJ-31" value="洗护状态更新" style="rounded=0;whiteSpace=wrap;html=1;strokeColor=none;" vertex="1" parent="1">
          <mxGeometry x="170" y="730" width="100" height="30" as="geometry" />
        </mxCell>
        <mxCell id="oXok-w3Ur9wGTffbCpxJ-32" value="洗护流程追踪" style="rounded=0;whiteSpace=wrap;html=1;strokeColor=none;" vertex="1" parent="1">
          <mxGeometry x="170" y="770" width="100" height="30" as="geometry" />
        </mxCell>
        <mxCell id="oXok-w3Ur9wGTffbCpxJ-33" value="" style="rounded=1;whiteSpace=wrap;html=1;strokeWidth=2;strokeColor=#6eb6ff;fillStyle=hatch;fillColor=#6EB6FF02;gradientColor=#6EB6FF66;" vertex="1" parent="1">
          <mxGeometry x="650" y="430" width="170" height="170" as="geometry" />
        </mxCell>
        <mxCell id="oXok-w3Ur9wGTffbCpxJ-34" value="&lt;font style=&quot;font-size: 14px;&quot;&gt;4.1洗护全流程管理&lt;/font&gt;" style="rounded=0;whiteSpace=wrap;html=1;strokeColor=none;fillColor=none;" vertex="1" parent="1">
          <mxGeometry x="660" y="437" width="150" height="30" as="geometry" />
        </mxCell>
        <mxCell id="oXok-w3Ur9wGTffbCpxJ-35" value="进度查看" style="rounded=0;whiteSpace=wrap;html=1;strokeColor=none;" vertex="1" parent="1">
          <mxGeometry x="660" y="470" width="150" height="30" as="geometry" />
        </mxCell>
        <mxCell id="oXok-w3Ur9wGTffbCpxJ-36" value="洗护情况查看" style="rounded=0;whiteSpace=wrap;html=1;strokeColor=none;" vertex="1" parent="1">
          <mxGeometry x="660" y="510" width="150" height="30" as="geometry" />
        </mxCell>
        <mxCell id="oXok-w3Ur9wGTffbCpxJ-37" value="" style="rounded=1;whiteSpace=wrap;html=1;strokeWidth=2;strokeColor=#6eb6ff;fillStyle=hatch;fillColor=#6EB6FF02;gradientColor=#6EB6FF66;" vertex="1" parent="1">
          <mxGeometry x="450" y="650" width="120" height="170" as="geometry" />
        </mxCell>
        <mxCell id="oXok-w3Ur9wGTffbCpxJ-38" value="&lt;font style=&quot;font-size: 14px;&quot;&gt;6.物品回送&lt;/font&gt;" style="rounded=0;whiteSpace=wrap;html=1;strokeColor=none;fillColor=none;" vertex="1" parent="1">
          <mxGeometry x="460" y="657" width="100" height="30" as="geometry" />
        </mxCell>
        <mxCell id="oXok-w3Ur9wGTffbCpxJ-39" value="满意度更新" style="rounded=0;whiteSpace=wrap;html=1;strokeColor=none;" vertex="1" parent="1">
          <mxGeometry x="460" y="690" width="100" height="30" as="geometry" />
        </mxCell>
        <mxCell id="oXok-w3Ur9wGTffbCpxJ-40" value="订单状态更新" style="rounded=0;whiteSpace=wrap;html=1;strokeColor=none;" vertex="1" parent="1">
          <mxGeometry x="460" y="730" width="100" height="30" as="geometry" />
        </mxCell>
        <mxCell id="oXok-w3Ur9wGTffbCpxJ-41" value="其他" style="rounded=0;whiteSpace=wrap;html=1;strokeColor=none;" vertex="1" parent="1">
          <mxGeometry x="460" y="770" width="100" height="30" as="geometry" />
        </mxCell>
        <mxCell id="oXok-w3Ur9wGTffbCpxJ-42" value="" style="rounded=1;whiteSpace=wrap;html=1;strokeWidth=2;strokeColor=#de95ba;fillStyle=hatch;fillColor=#de95ba02;gradientColor=#de95ba66;" vertex="1" parent="1">
          <mxGeometry x="160" y="870" width="410" height="170" as="geometry" />
        </mxCell>
        <mxCell id="oXok-w3Ur9wGTffbCpxJ-43" value="&lt;font style=&quot;font-size: 14px;&quot;&gt;7.订单归档与统计&lt;/font&gt;" style="rounded=0;whiteSpace=wrap;html=1;strokeColor=none;fillColor=none;" vertex="1" parent="1">
          <mxGeometry x="170" y="877" width="390" height="30" as="geometry" />
        </mxCell>
        <mxCell id="oXok-w3Ur9wGTffbCpxJ-44" value="订单归档" style="rounded=0;whiteSpace=wrap;html=1;strokeColor=none;" vertex="1" parent="1">
          <mxGeometry x="170" y="910" width="100" height="30" as="geometry" />
        </mxCell>
        <mxCell id="oXok-w3Ur9wGTffbCpxJ-45" value="费用统计" style="rounded=0;whiteSpace=wrap;html=1;strokeColor=none;" vertex="1" parent="1">
          <mxGeometry x="290" y="910" width="100" height="30" as="geometry" />
        </mxCell>
        <mxCell id="oXok-w3Ur9wGTffbCpxJ-46" value="其他" style="rounded=0;whiteSpace=wrap;html=1;strokeColor=none;" vertex="1" parent="1">
          <mxGeometry x="413.5" y="910" width="100" height="30" as="geometry" />
        </mxCell>
        <mxCell id="oXok-w3Ur9wGTffbCpxJ-47" value="&lt;font style=&quot;font-size: 15px;&quot;&gt;WEB 端&lt;br&gt;（电脑端）&lt;/font&gt;" style="rounded=0;whiteSpace=wrap;html=1;strokeColor=#de95ba;fillColor=#de95ba;" vertex="1" parent="1">
          <mxGeometry x="10" y="910" width="120" height="80" as="geometry" />
        </mxCell>
        <mxCell id="oXok-w3Ur9wGTffbCpxJ-65" style="edgeStyle=orthogonalEdgeStyle;rounded=0;orthogonalLoop=1;jettySize=auto;html=1;exitX=1;exitY=0.5;exitDx=0;exitDy=0;entryX=0;entryY=0.5;entryDx=0;entryDy=0;endArrow=none;endFill=0;" edge="1" parent="1" source="oXok-w3Ur9wGTffbCpxJ-48" target="oXok-w3Ur9wGTffbCpxJ-17">
          <mxGeometry relative="1" as="geometry" />
        </mxCell>
        <mxCell id="oXok-w3Ur9wGTffbCpxJ-48" value="&lt;font style=&quot;font-size: 14px;&quot;&gt;骑手端小程序&lt;/font&gt;" style="rounded=0;whiteSpace=wrap;html=1;strokeColor=#ffc93c;fillColor=#ffc93c;" vertex="1" parent="1">
          <mxGeometry x="10" y="485" width="120" height="60" as="geometry" />
        </mxCell>
        <mxCell id="oXok-w3Ur9wGTffbCpxJ-50" value="记录回查" style="rounded=0;whiteSpace=wrap;html=1;strokeColor=none;" vertex="1" parent="1">
          <mxGeometry x="170" y="960" width="100" height="30" as="geometry" />
        </mxCell>
        <mxCell id="oXok-w3Ur9wGTffbCpxJ-51" value="满意度统计" style="rounded=0;whiteSpace=wrap;html=1;strokeColor=none;" vertex="1" parent="1">
          <mxGeometry x="290" y="960" width="100" height="30" as="geometry" />
        </mxCell>
        <mxCell id="oXok-w3Ur9wGTffbCpxJ-66" style="edgeStyle=orthogonalEdgeStyle;rounded=0;orthogonalLoop=1;jettySize=auto;html=1;exitX=1;exitY=0.5;exitDx=0;exitDy=0;endArrow=none;endFill=0;" edge="1" parent="1" source="oXok-w3Ur9wGTffbCpxJ-53">
          <mxGeometry relative="1" as="geometry">
            <mxPoint x="160" y="730" as="targetPoint" />
          </mxGeometry>
        </mxCell>
        <mxCell id="oXok-w3Ur9wGTffbCpxJ-53" value="&lt;font style=&quot;font-size: 14px;&quot;&gt;工厂端小程序&lt;/font&gt;" style="rounded=0;whiteSpace=wrap;html=1;strokeColor=#a4e5d9;fillColor=#a4e5d9;" vertex="1" parent="1">
          <mxGeometry x="10" y="700" width="120" height="60" as="geometry" />
        </mxCell>
        <mxCell id="oXok-w3Ur9wGTffbCpxJ-54" value="" style="rounded=1;whiteSpace=wrap;html=1;strokeColor=#11d3bc;strokeWidth=2;" vertex="1" parent="1">
          <mxGeometry x="270" y="1070" width="190" height="60" as="geometry" />
        </mxCell>
        <mxCell id="oXok-w3Ur9wGTffbCpxJ-56" value="&lt;span style=&quot;font-size: 16px;&quot;&gt;结束&lt;/span&gt;" style="rounded=0;whiteSpace=wrap;html=1;strokeColor=none;" vertex="1" parent="1">
          <mxGeometry x="280" y="1080" width="170" height="40" as="geometry" />
        </mxCell>
        <mxCell id="oXok-w3Ur9wGTffbCpxJ-58" value="" style="endArrow=classic;html=1;exitX=1;exitY=0.5;exitDx=0;exitDy=0;entryX=0;entryY=0.5;entryDx=0;entryDy=0;edgeStyle=orthogonalEdgeStyle;strokeWidth=2;strokeColor=#696969;" edge="1" parent="1" source="oXok-w3Ur9wGTffbCpxJ-4" target="oXok-w3Ur9wGTffbCpxJ-12">
          <mxGeometry width="50" height="50" relative="1" as="geometry">
            <mxPoint x="375" y="130" as="sourcePoint" />
            <mxPoint x="230" y="220" as="targetPoint" />
          </mxGeometry>
        </mxCell>
        <mxCell id="oXok-w3Ur9wGTffbCpxJ-59" value="" style="endArrow=classic;html=1;exitX=0.5;exitY=1;exitDx=0;exitDy=0;entryX=0.5;entryY=0;entryDx=0;entryDy=0;edgeStyle=orthogonalEdgeStyle;strokeWidth=2;strokeColor=#696969;" edge="1" parent="1" source="oXok-w3Ur9wGTffbCpxJ-12" target="oXok-w3Ur9wGTffbCpxJ-17">
          <mxGeometry width="50" height="50" relative="1" as="geometry">
            <mxPoint x="290" y="305" as="sourcePoint" />
            <mxPoint x="460" y="305" as="targetPoint" />
          </mxGeometry>
        </mxCell>
        <mxCell id="oXok-w3Ur9wGTffbCpxJ-60" value="" style="endArrow=classic;html=1;exitX=1;exitY=0.5;exitDx=0;exitDy=0;entryX=0;entryY=0.5;entryDx=0;entryDy=0;edgeStyle=orthogonalEdgeStyle;strokeWidth=2;strokeColor=#696969;" edge="1" parent="1" source="oXok-w3Ur9wGTffbCpxJ-17" target="oXok-w3Ur9wGTffbCpxJ-23">
          <mxGeometry width="50" height="50" relative="1" as="geometry">
            <mxPoint x="520" y="390" as="sourcePoint" />
            <mxPoint x="230" y="440" as="targetPoint" />
          </mxGeometry>
        </mxCell>
        <mxCell id="oXok-w3Ur9wGTffbCpxJ-61" value="" style="endArrow=classic;html=1;exitX=0.5;exitY=1;exitDx=0;exitDy=0;entryX=0.5;entryY=0;entryDx=0;entryDy=0;edgeStyle=orthogonalEdgeStyle;strokeWidth=2;strokeColor=#696969;" edge="1" parent="1" source="oXok-w3Ur9wGTffbCpxJ-23" target="oXok-w3Ur9wGTffbCpxJ-28">
          <mxGeometry width="50" height="50" relative="1" as="geometry">
            <mxPoint x="290" y="525" as="sourcePoint" />
            <mxPoint x="460" y="525" as="targetPoint" />
          </mxGeometry>
        </mxCell>
        <mxCell id="oXok-w3Ur9wGTffbCpxJ-62" value="" style="endArrow=classic;html=1;exitX=1;exitY=0.5;exitDx=0;exitDy=0;entryX=0;entryY=0.5;entryDx=0;entryDy=0;edgeStyle=orthogonalEdgeStyle;strokeWidth=2;strokeColor=#696969;" edge="1" parent="1" source="oXok-w3Ur9wGTffbCpxJ-28" target="oXok-w3Ur9wGTffbCpxJ-37">
          <mxGeometry width="50" height="50" relative="1" as="geometry">
            <mxPoint x="520" y="610" as="sourcePoint" />
            <mxPoint x="230" y="660" as="targetPoint" />
          </mxGeometry>
        </mxCell>
        <mxCell id="oXok-w3Ur9wGTffbCpxJ-63" value="" style="endArrow=classic;html=1;exitX=0.5;exitY=1;exitDx=0;exitDy=0;entryX=0.5;entryY=0;entryDx=0;entryDy=0;edgeStyle=orthogonalEdgeStyle;strokeWidth=2;strokeColor=#696969;" edge="1" parent="1" source="oXok-w3Ur9wGTffbCpxJ-37" target="oXok-w3Ur9wGTffbCpxJ-42">
          <mxGeometry width="50" height="50" relative="1" as="geometry">
            <mxPoint x="290" y="745" as="sourcePoint" />
            <mxPoint x="460" y="745" as="targetPoint" />
          </mxGeometry>
        </mxCell>
        <mxCell id="oXok-w3Ur9wGTffbCpxJ-64" value="" style="endArrow=classic;html=1;exitX=0.5;exitY=1;exitDx=0;exitDy=0;entryX=0.5;entryY=0;entryDx=0;entryDy=0;edgeStyle=orthogonalEdgeStyle;strokeWidth=2;strokeColor=#696969;" edge="1" parent="1" source="oXok-w3Ur9wGTffbCpxJ-42" target="oXok-w3Ur9wGTffbCpxJ-56">
          <mxGeometry width="50" height="50" relative="1" as="geometry">
            <mxPoint x="520" y="830" as="sourcePoint" />
            <mxPoint x="375" y="880" as="targetPoint" />
          </mxGeometry>
        </mxCell>
      </root>
    </mxGraphModel>
  </diagram>
</mxfile>
